<svg xmlns="http://www.w3.org/2000/svg" width="51.358" height="57.902" viewBox="0 0 51.358 57.902">
  <g id="Gruppe_3" data-name="Gruppe 3" transform="translate(-561.5 -286.227)">
    <g id="Gruppe_1" data-name="Gruppe 1" transform="translate(561.5 286.227)">
      <path id="Pfad_1" data-name="Pfad 1" d="M391.155,288.71s.793,4.816,0,4.532-14.5-8.926-15.578-8.858-20.145,10.243-21.209,11.793-.677,3.484,0,3.843,24.78,14.217,25.124,14.544-2.38,2.833-3.347,2.169-25.508-14.983-25.921-15.2c-.332-.175-.608-3.61-.3-5.723a2.973,2.973,0,0,1,.3-1c.74-1.245,24.372-14.4,25.353-14.749s13.876,7.853,15.578,8.649" transform="translate(-349.789 -280.05)" fill="#5592f7"/>
      <path id="Pfad_2" data-name="Pfad 2" d="M394.788,305.777l-11.636,7.346,3.583,2.519,9.012-5.249,24.589,14.531V309.706l-4.3-2.6s1.279,10.154,0,10.628S394.788,305.777,394.788,305.777Z" transform="translate(-369.064 -295.193)" fill="#5592f7"/>
    </g>
    <g id="Gruppe_2" data-name="Gruppe 2" transform="translate(562.187 307.349)">
      <path id="Pfad_3" data-name="Pfad 3" d="M351.2,363.7V348.664l23.921,14.157h2.453l8.244-5.593,3.7,2.644L376.478,367.4l-20.9-11.205L355.027,366Z" transform="translate(-351.202 -341.214)" fill="#5592f7"/>
      <path id="Pfad_4" data-name="Pfad 4" d="M389.451,330.9l-3.175,2.684,22.91,13.269,1.434,1.243v2.78l-20.564,12.387-1.838-.5-14.26-8.14v4.438l14.746,8.613h1.974l24.407-14.551V345.2Z" transform="translate(-364.413 -330.903)" fill="#5592f7"/>
    </g>
  </g>
</svg>
